:SAMPLES-PER-SECOND 30
:FULLY-SPECIFIED
:DEGREES
828
root  4.03838 38.1056 19.0122 -11.2512 85.3911 -4.78865
RightUpLeg  -16.5135 -5.6853 0.578555
RightLeg  11.4523 2.6124 1.1293
RightFoot  7.7298 -0.0634151 0.679169
RightToes  2.96859e-009 0 -3.6325e-017
Spine  3.12615 -2.54407 5.57938
Spine1  13.4631 -2.52727 -0.686746
HEad  -15.2533 4.0461 -3.22372
LeftShoulder1  0.1822 3.00795 -30.6543
LeftArm  1.67302 6.99486 -42.8269
LeftForeArm  18.9 -15.9975 -6.24652
LeftHand  -0.0609103 2.41164 1.82056
RightShoulder  -0.553236 -5.0952 27.9881
RightArm  15.9418 -3.70832 47.0042
RightForeArm  1.31502 12.6492 6.8989
RightHand  -0.611304 3.1013 -8.57474
LeftUpLeg  21.0737 3.06295 -2.97239
LeftLeg  17.1151 -7.72517 -2.10344
LeftFoot  -18.5057 0.420351 4.93341
LeftToes  3.24686e-010 -7.02549e-012 1.39809e-011
829
root  5.40696 38.1573 19.1902 -25.3089 84.9003 -19.6767
RightUpLeg  -16.9913 -5.71715 2.25316
RightLeg  14.9867 3.15001 1.16738
RightFoot  6.37327 0.26184 -1.40509
RightToes  2.96859e-009 0 -3.6325e-017
Spine  2.37593 -2.64195 7.9134
Spine1  13.295 -2.5612 -0.414911
HEad  -15.0781 4.72648 -3.93678
LeftShoulder1  0.0903771 3.26101 -31.0966
LeftArm  -4.54493 8.17997 -43.2521
LeftForeArm  25.4307 -9.8904 -7.67646
LeftHand  -0.0251707 4.54222 0.237472
RightShoulder  -0.541032 -5.05905 27.9688
RightArm  13.9997 -3.8903 46.3787
RightForeArm  2.51741 10.3792 7.08918
RightHand  -0.55777 2.55085 -8.35905
LeftUpLeg  20.066 3.28912 -0.659079
LeftLeg  21.4899 -9.45988 -3.81822
LeftFoot  -16.0114 0.148137 1.139
LeftToes  3.24686e-010 -7.02549e-012 1.39809e-011
830
root  6.59975 38.2552 19.4307 -38.504 85.4969 -33.4912
RightUpLeg  -16.6777 -5.5519 2.94416
RightLeg  17.1986 2.10512 0.912217
RightFoot  4.26245 0.401312 -2.71499
RightToes  2.96859e-009 0 -3.6325e-017
Spine  2.3624 -2.85801 7.7995
Spine1  12.8383 -3.22659 2.18145
HEad  -14.8987 4.88947 -3.96524
LeftShoulder1  0.0895971 3.26675 -31.6403
LeftArm  -5.88151 9.66913 -43.4733
LeftForeArm  28.2883 -6.03226 -7.85371
LeftHand  -0.0265235 5.09043 -1.57796
RightShoulder  -0.455983 -4.84613 27.0885
RightArm  12.0618 -4.41603 46.5607
RightForeArm  2.57736 8.18136 6.97219
RightHand  -0.582252 2.40664 -8.86088
LeftUpLeg  16.9364 3.56677 1.88296
LeftLeg  28.9785 -12.3123 -6.97259
LeftFoot  -10.9468 0.0901663 -3.9077
LeftToes  3.24686e-010 -7.02549e-012 1.39809e-011
831
root  7.70068 38.3451 19.6403 -64.6693 86.2516 -60.1357
RightUpLeg  -15.7689 -6.69773 3.49111
RightLeg  18.4912 1.3559 0.96737
RightFoot  1.99549 0.390829 -3.1989
RightToes  2.96859e-009 0 -3.6325e-017
Spine  2.55411 -3.23055 8.79011
Spine1  12.4588 -3.59494 3.19249
HEad  -15.3719 4.20202 -3.50756
LeftShoulder1  0.154504 3.09226 -31.5009
LeftArm  -4.92235 10.9754 -43.5674
LeftForeArm  31.2866 -4.76795 -8.23618
LeftHand  -0.0396569 5.66591 -3.24818
RightShoulder  -0.465895 -4.88777 26.7734
RightArm  10.3421 -5.36056 46.6357
RightForeArm  2.21411 7.63945 6.37521
RightHand  -0.604697 2.32849 -9.29156
LeftUpLeg  11.7895 2.22478 3.8013
LeftLeg  38.6355 -12.4808 -10.1307
LeftFoot  -2.89552 0.689857 -8.86538
LeftToes  3.24686e-010 -7.02549e-012 1.39809e-011
832
root  8.69358 38.3776 19.8073 -89.0454 86.0828 -84.9011
RightUpLeg  -14.9443 -7.24541 3.86509
RightLeg  19.7284 0.243866 0.856816
RightFoot  -0.280497 0.26832 -2.80096
RightToes  2.96859e-009 0 -3.6325e-017
Spine  2.86597 -3.23708 10.9852
Spine1  12.3116 -3.02209 2.43237
HEad  -16.1452 2.30054 -2.47481
LeftShoulder1  0.220432 2.90963 -30.9737
LeftArm  -4.67963 11.8433 -43.569
LeftForeArm  36.3064 -5.24151 -8.42101
LeftHand  -0.0133285 4.97783 -4.42142
RightShoulder  -0.533349 -5.06276 27.4184
RightArm  10.0307 -6.06503 45.955
RightForeArm  0.413963 8.22291 6.23608
RightHand  -0.621422 2.10077 -9.81203
LeftUpLeg  5.94717 1.06206 5.22507
LeftLeg  47.7299 -10.3811 -11.5708
LeftFoot  5.34295 1.83207 -12.8167
LeftToes  3.24686e-010 -7.02549e-012 1.39809e-011
833
root  9.63937 38.416 19.9497 -107.181 85.5511 -102.723
RightUpLeg  -13.3428 -8.05534 4.00216
RightLeg  20.7192 -0.376497 0.961744
RightFoot  -2.14475 0.24413 -3.21846
RightToes  2.96859e-009 0 -3.6325e-017
Spine  3.69367 -3.09546 12.5353
Spine1  12.4435 -2.4426 2.27106
HEad  -16.1688 0.181392 -2.49183
LeftShoulder1  0.190823 2.99594 -31.4505
LeftArm  -3.75199 12.5728 -42.844
LeftForeArm  37.3731 -7.25647 -8.69032
LeftHand  0.0090744 4.56115 -5.11326
RightShoulder  -0.513769 -5.00424 27.4185
RightArm  10.8585 -6.27087 45.4376
RightForeArm  -0.56993 9.17165 6.42367
RightHand  -0.669177 2.98763 -9.47645
LeftUpLeg  1.34021 0.568925 6.37871
LeftLeg  54.4182 -7.19958 -10.1946
LeftFoot  8.35113 2.23748 -13.1128
LeftToes  3.24686e-010 -7.02549e-012 1.39809e-011
834
root  10.6414 38.6058 20.1156 -118.267 85.9093 -113.361
RightUpLeg  -10.9184 -8.56685 3.24385
RightLeg  20.4971 -0.626011 0.98268
RightFoot  -3.45721 0.229141 -3.65214
RightToes  2.96859e-009 0 -3.6325e-017
Spine  4.42474 -2.72324 13.1203
Spine1  12.3097 -1.53236 0.912173
HEad  -15.8497 -1.71882 -2.53561
LeftShoulder1  0.105836 3.22052 -31.2443
LeftArm  -2.11987 13.5511 -42.4698
LeftForeArm  33.6527 -9.77594 -8.39936
LeftHand  0.0139942 4.42071 -5.04146
RightShoulder  -0.478075 -4.90503 27.2544
RightArm  12.7796 -5.76266 45.5547
RightForeArm  0.212706 9.94406 6.8897
RightHand  -0.55628 2.08065 -8.8526
LeftUpLeg  -2.81682 0.874659 6.38317
LeftLeg  58.934 -4.11945 -6.85094
LeftFoot  5.98769 1.44703 -9.74266
LeftToes  3.24686e-010 -7.02549e-012 1.39809e-011
835
root  11.6194 38.7913 20.2246 -129.635 86.3945 -124.263
RightUpLeg  -8.34382 -8.6246 2.28253
RightLeg  19.8779 -0.974165 0.87098
RightFoot  -4.68753 0.175755 -3.56799
RightToes  2.96859e-009 0 -3.6325e-017
Spine  4.66948 -2.39308 13.0548
Spine1  12.7962 -0.935315 0.0847755
HEad  -14.9838 -1.94533 -2.77366
LeftShoulder1  0.062962 3.33569 -31.3646
LeftArm  0.747033 14.8214 -42.2229
LeftForeArm  25.6505 -12.9908 -7.73502
LeftHand  -0.0156731 4.65497 -1.89773
RightShoulder  -0.473172 -4.9081 26.8304
RightArm  14.8936 -4.14341 45.9797
RightForeArm  1.24956 10.4014 7.37966
RightHand  -0.44963 0.526542 -8.91441
LeftUpLeg  -6.43289 1.31402 5.91301
LeftLeg  60.5807 -2.06017 -3.4261
LeftFoot  5.38027 0.895727 -6.31671
LeftToes  3.24686e-010 -7.02549e-012 1.39809e-011
836
root  12.5758 38.9585 20.3131 -146.126 86.9101 -140.587
RightUpLeg  -6.0972 -9.23565 0.951605
RightLeg  19.2703 -0.439735 1.10827
RightFoot  -5.9249 0.129705 -3.58639
RightToes  2.96859e-009 0 -3.6325e-017
Spine  4.73852 -2.01527 12.4321
Spine1  12.8786 -0.482202 -0.43543
HEad  -15.306 -1.4603 -1.63463
LeftShoulder1  0.0562217 3.35531 -31.7862
LeftArm  2.05971 15.5702 -41.8785
LeftForeArm  20.3775 -15.3042 -6.7703
LeftHand  -0.00909512 3.77203 -0.78271
RightShoulder  -0.476278 -4.92413 26.6755
RightArm  16.3349 -2.77919 45.943
RightForeArm  1.02599 11.3756 7.41129
RightHand  -0.505397 1.64648 -8.49158
LeftUpLeg  -9.78191 1.71185 4.92958
LeftLeg  59.5664 -1.01472 -1.33254
LeftFoot  3.91941 0.546339 -4.23872
LeftToes  3.24686e-010 -7.02549e-012 1.39809e-011
837
root  13.5151 39.0925 20.3858 -162.608 86.9423 -156.883
RightUpLeg  -3.80334 -9.68025 -0.0980467
RightLeg  18.5408 -0.358008 1.22446
RightFoot  -7.10322 0.0836243 -3.5574
RightToes  2.96859e-009 0 -3.6325e-017
Spine  4.85735 -1.71511 12.7123
Spine1  12.834 0.167129 -1.98223
HEad  -14.0921 -2.37925 -2.30643
LeftShoulder1  0.05922 3.34519 -31.2516
LeftArm  2.57039 15.7305 -42.3632
LeftForeArm  17.7705 -17.1369 -5.91012
LeftHand  -0.0165406 3.61785 -0.27736
RightShoulder  -0.508692 -5.02524 26.6131
RightArm  17.7829 -2.31441 45.8683
RightForeArm  -1.42602 13.8426 6.86982
RightHand  -0.502814 1.81747 -8.26971
LeftUpLeg  -12.449 2.10312 4.13702
LeftLeg  56.045 -1.09 -1.21196
LeftFoot  1.5891 0.290464 -2.67112
LeftToes  3.24686e-010 -7.02549e-012 1.39809e-011
838
root  14.4407 39.1801 20.4404 -174.404 86.7783 -168.57
RightUpLeg  -1.73531 -9.97018 -0.924709
RightLeg  17.9728 -0.261522 1.28748
RightFoot  -8.23511 0.0373348 -3.42055
RightToes  2.96859e-009 0 -3.6325e-017
Spine  5.0658 -1.44243 12.7388
Spine1  12.626 0.610465 -2.92657
HEad  -12.4312 -2.86471 -2.87466
LeftShoulder1  -0.00318317 3.51228 -31.384
LeftArm  4.22308 15.6861 -42.2692
LeftForeArm  16.1428 -19.4061 -5.03365
LeftHand  -0.0266066 3.11657 0.536333
RightShoulder  -0.548938 -5.14589 26.6458
RightArm  19.0217 -2.06077 45.5173
RightForeArm  -4.25148 16.8035 6.03486
RightHand  -0.545389 2.17604 -8.52161
LeftUpLeg  -14.3246 2.91387 3.63399
LeftLeg  50.1641 -2.0322 -2.18684
LeftFoot  -0.604226 0.22324 -2.33717
LeftToes  3.24686e-010 -7.02549e-012 1.39809e-011
